<?xml version="1.0" encoding="UTF-8" standalone="no"?> <svg id="Layer_1" data-name="Layer 1" xmlns="http://www.w3.org/2000/svg" viewBox="0 0 128 128"><defs><style>.cls-1{fill:#2d3e50;}.cls-2{fill:#2e79bd;}</style></defs><title>x</title><path class="cls-1" d="M74.458,3.696V53.55422h49.85823A49.86021,49.86021,0,0,0,74.458,3.696Z"/><path class="cls-2" d="M64.18535,63.80245V13.94422h-5.334a55.30208,55.30208,0,0,0-8.24056.61489q-2.00026.3-3.95112.74578a55.171,55.171,0,0,0-21.32125,97.62976q1.91135,1.46686,3.95112,2.76332a54.80738,54.80738,0,0,0,17.37013,7.24785c.69884.16051,1.40265.30374,2.11138.43461a55.51186,55.51186,0,0,0,20.168,0q1.51131-.27781,2.993-.63958a54.95154,54.95154,0,0,0,17.37259-7.60838q2.041-1.35574,3.95112-2.88185a55.0739,55.0739,0,0,0,20.78784-43.11416v-5.334ZM93.25573,100.4417l-.00074.00077-.00036-9.9295H89.30351V102.7511h1.69711A46.59481,46.59481,0,0,1,71.932,113.79155v-2.64973H67.9809V114.762a46.81366,46.81366,0,0,1-17.37011.16792v-3.78815H46.65966V114.041a46.50125,46.50125,0,0,1-19.9428-11.28987h2.57354V90.513H25.33929V101.376l-.00059-.00059a46.46608,46.46608,0,0,1-.00029-64.495l.00087-.00089v3.98353h3.95112V33.21757A46.28844,46.28844,0,0,1,55.54227,22.70335V72.44553H67.98206v9.67624h3.95112V72.44553H89.30351v9.67624h3.95112V72.44553h12.0298A46.32409,46.32409,0,0,1,93.25573,100.4417Z"/><rect class="cls-2" x="67.98206" y="90.51296" width="3.95112" height="12.23813"/><rect class="cls-2" x="46.66061" y="28.62511" width="3.95112" height="12.23801"/><rect class="cls-2" x="46.66061" y="49.25443" width="3.95112" height="12.23801"/><rect class="cls-2" x="46.66061" y="69.88364" width="3.95112" height="12.23813"/><rect class="cls-2" x="46.66061" y="90.51296" width="3.95112" height="12.23813"/><rect class="cls-2" x="25.33929" y="49.25443" width="3.95112" height="12.23801"/><rect class="cls-2" x="25.33929" y="69.88364" width="3.95112" height="12.23813"/></svg>