<svg width="20" height="20" viewBox="0 0 20 20" fill="none" xmlns="http://www.w3.org/2000/svg">
<g clip-path="url(#clip0_1_949)">
<path d="M1.11111 1.18565V0.285645H0.111111V1.18565H1.11111ZM18.8889 13.7074V14.6074H19.8889V13.7074H18.8889ZM1.11111 13.7074H0.111111V14.6074H1.11111V13.7074ZM11.5459 13.7074L12.2102 13.0347L11.9261 12.8074H11.5459V13.7074ZM15.8937 17.1856L15.2293 17.8583L16.8937 19.1898V17.1856H15.8937ZM15.8937 13.7074V12.8074H14.8937V13.7074H15.8937ZM17.8889 3.86445V13.7074H19.8889V3.86445H17.8889ZM2.11111 13.7074V1.18565H0.111111V13.7074H2.11111ZM11.5459 12.8074H1.11111V14.6074H11.5459V12.8074ZM16.5581 16.513L12.2102 13.0347L10.8815 14.3801L15.2293 17.8583L16.5581 16.513ZM18.8889 12.8074H15.8937V14.6074H18.8889V12.8074ZM14.8937 13.7074V17.1856H16.8937V13.7074H14.8937ZM1.11111 2.08565H15.9124V0.285645H1.11111V2.08565ZM15.9124 2.08565C16.5129 2.08565 17.0807 2.33128 17.4558 2.75324L19.0176 1.62879C18.2629 0.779841 17.1204 0.285645 15.9124 0.285645V2.08565ZM19.8889 3.86445C19.8889 3.05181 19.5816 2.26336 19.0176 1.62879L17.4558 2.75324C17.7361 3.06865 17.8889 3.46053 17.8889 3.86445H19.8889Z" fill="#E2001A"/>
</g>
<defs>
<clipPath id="clip0_1_949">
<rect width="20" height="20" fill="white"/>
</clipPath>
</defs>
</svg>
