<svg width="20" height="20" viewBox="0 0 20 20" fill="none" xmlns="http://www.w3.org/2000/svg">
<g clip-path="url(#clip0_1_958)">
<path d="M1.45042 3.7624L1.1058 2.87011L0.342102 3.16507L0.515634 3.96515L1.45042 3.7624ZM16.8164 18.4614L16.655 19.4042L17.4132 19.5341L17.7027 18.8213L16.8164 18.4614ZM18.8418 13.4749L19.7279 13.8348L19.2691 12.6191L18.8418 13.4749ZM6.68949 1.73896L7.54487 1.31087L6.34487 0.84668L6.68949 1.73896ZM12.7656 13.0702L12.2738 13.8906L13.5856 13.5626L12.7656 13.0702ZM7.2797 7.80926L6.75295 7.01084L6.49745 8.35974L7.2797 7.80926ZM9.11993 6.5952L9.64671 7.39363L9.97532 6.1671L9.11993 6.5952ZM13.9808 11.0468L14.4083 10.1911L13.1608 10.5543L13.9808 11.0468ZM16.978 17.5186C9.71793 16.2748 3.93468 10.7036 2.3852 3.55965L0.515634 3.96515C2.23001 11.8694 8.62341 18.0282 16.655 19.4042L16.978 17.5186ZM17.7027 18.8213L19.7279 13.8348L17.9555 13.115L15.9303 18.1014L17.7027 18.8213ZM1.79504 4.65468L7.03411 2.63125L6.34487 0.84668L1.1058 2.87011L1.79504 4.65468ZM13.2574 12.2497C11.3711 11.1191 9.34401 9.0807 8.06194 7.25878L6.49745 8.35974C7.89685 10.3484 10.1095 12.5932 12.2738 13.8906L13.2574 12.2497ZM7.80644 8.60769L9.64671 7.39363L8.5932 5.79678L6.75295 7.01084L7.80644 8.60769ZM13.5856 13.5626L14.8008 11.5392L13.1608 10.5543L11.9456 12.5777L13.5856 13.5626ZM13.5534 11.9024L18.4143 14.3306L19.2691 12.6191L14.4083 10.1911L13.5534 11.9024ZM9.97532 6.1671L7.54487 1.31087L5.83412 2.16706L8.26456 7.0233L9.97532 6.1671Z" fill="white"/>
</g>
<defs>
<clipPath id="clip0_1_958">
<rect width="20" height="20" fill="white"/>
</clipPath>
</defs>
</svg>
