<svg width="20" height="20" viewBox="0 0 20 20" fill="none" xmlns="http://www.w3.org/2000/svg">
<path d="M7.53329 17.9498C8.33329 18.1915 9.14163 18.3332 9.99996 18.3332C12.2101 18.3332 14.3297 17.4552 15.8925 15.8924C17.4553 14.3296 18.3333 12.21 18.3333 9.99984C18.3333 8.9055 18.1177 7.82185 17.699 6.81081C17.2801 5.79976 16.6664 4.8811 15.8925 4.10728C15.1187 3.33346 14.2 2.71963 13.189 2.30084C12.178 1.88205 11.0943 1.6665 9.99996 1.6665C8.90563 1.6665 7.82198 1.88205 6.81093 2.30084C5.79988 2.71963 4.88123 3.33346 4.1074 4.10728C2.5446 5.67009 1.66663 7.7897 1.66663 9.99984C1.66663 13.5415 3.89163 16.5832 7.03329 17.7832C6.95829 17.1332 6.88329 16.0582 7.03329 15.3165L7.99163 11.1998C7.99163 11.1998 7.74996 10.7165 7.74996 9.94984C7.74996 8.79984 8.46663 7.9415 9.28329 7.9415C9.99996 7.9415 10.3333 8.4665 10.3333 9.1415C10.3333 9.85817 9.85829 10.8832 9.61663 11.8665C9.47496 12.6832 10.05 13.3998 10.8833 13.3998C12.3666 13.3998 13.5166 11.8165 13.5166 9.58317C13.5166 7.58317 12.0833 6.2165 10.025 6.2165C7.67496 6.2165 6.29163 7.9665 6.29163 9.80817C6.29163 10.5248 6.52496 11.2498 6.90829 11.7248C6.98329 11.7748 6.98329 11.8415 6.95829 11.9665L6.71663 12.8748C6.71663 13.0165 6.62496 13.0665 6.48329 12.9665C5.41663 12.4998 4.79996 10.9832 4.79996 9.75817C4.79996 7.12484 6.66663 4.73317 10.2666 4.73317C13.1333 4.73317 15.3666 6.7915 15.3666 9.52484C15.3666 12.3915 13.5916 14.6915 11.05 14.6915C10.2416 14.6915 9.44996 14.2582 9.16663 13.7498L8.60829 15.7248C8.41663 16.4415 7.89163 17.3998 7.53329 17.9748V17.9498Z" fill="white"/>
</svg>
