<?xml version="1.0" encoding="UTF-8"?>
<svg xmlns="http://www.w3.org/2000/svg" xmlns:xlink="http://www.w3.org/1999/xlink" width="30px" height="30px" viewBox="0 0 30 30" version="1.1">
<g id="surface1">
<path style=" stroke:none;fill-rule:evenodd;fill:rgb(66.27451%,28.235294%,83.921569%);fill-opacity:1;" d="M 11.074219 29.921875 C 11.015625 29.921875 10.957031 29.90625 10.902344 29.882812 C 10.773438 29.816406 10.691406 29.683594 10.691406 29.542969 L 10.691406 17.527344 C 10.691406 17.355469 10.808594 17.203125 10.976562 17.160156 L 12.804688 16.667969 C 12.933594 16.632812 13.074219 16.671875 13.171875 16.765625 L 14.617188 18.214844 C 14.699219 18.296875 14.808594 18.339844 14.925781 18.339844 C 15.039062 18.339844 15.148438 18.296875 15.230469 18.214844 L 16.652344 16.792969 C 16.746094 16.699219 16.886719 16.660156 17.019531 16.695312 L 18.949219 17.210938 C 19.113281 17.257812 19.230469 17.40625 19.230469 17.578125 L 19.230469 29.542969 C 19.230469 29.683594 19.148438 29.8125 19.023438 29.878906 C 18.898438 29.945312 18.746094 29.933594 18.628906 29.851562 L 14.859375 27.195312 L 11.300781 29.847656 C 11.234375 29.894531 11.152344 29.921875 11.074219 29.921875 Z M 14.851562 26.34375 C 14.929688 26.34375 15.003906 26.367188 15.070312 26.414062 L 18.46875 28.808594 L 18.46875 17.871094 L 17.035156 17.484375 L 15.769531 18.753906 C 15.542969 18.976562 15.242188 19.101562 14.925781 19.101562 C 14.605469 19.101562 14.304688 18.976562 14.082031 18.753906 L 12.789062 17.460938 L 11.453125 17.816406 L 11.453125 28.785156 L 14.625 26.417969 C 14.691406 26.371094 14.769531 26.34375 14.851562 26.34375 Z M 14.851562 26.34375 "/>
<path style=" stroke:none;fill-rule:evenodd;fill:rgb(66.27451%,28.235294%,83.921569%);fill-opacity:1;" d="M 14.851562 27.105469 C 14.640625 27.105469 14.472656 26.933594 14.472656 26.722656 L 14.472656 18.71875 C 14.472656 18.511719 14.640625 18.339844 14.851562 18.339844 C 15.0625 18.339844 15.230469 18.511719 15.230469 18.71875 L 15.230469 26.722656 C 15.230469 26.933594 15.0625 27.105469 14.851562 27.105469 Z M 14.851562 27.105469 "/>
<path style=" stroke:none;fill-rule:evenodd;fill:rgb(27.843137%,83.529412%,77.254902%);fill-opacity:1;" d="M 14.925781 19.101562 C 14.605469 19.101562 14.304688 18.976562 14.082031 18.753906 L 12.789062 17.460938 L 11.058594 17.921875 C 10.957031 17.949219 10.855469 17.964844 10.75 17.964844 C 10.210938 17.964844 9.738281 17.601562 9.597656 17.078125 L 9.125 15.3125 L 7.394531 14.851562 C 6.761719 14.679688 6.382812 14.023438 6.550781 13.390625 L 7.027344 11.625 L 5.757812 10.355469 C 5.292969 9.890625 5.292969 9.136719 5.757812 8.671875 L 7.050781 7.378906 L 6.589844 5.648438 C 6.507812 5.339844 6.550781 5.019531 6.710938 4.742188 C 6.867188 4.46875 7.125 4.269531 7.433594 4.1875 L 9.199219 3.714844 L 9.660156 1.984375 C 9.800781 1.464844 10.277344 1.101562 10.816406 1.101562 C 10.917969 1.101562 11.023438 1.113281 11.121094 1.140625 L 12.886719 1.613281 L 14.15625 0.347656 C 14.378906 0.125 14.679688 0 14.996094 0 C 15.316406 0 15.617188 0.125 15.839844 0.347656 L 17.132812 1.640625 L 18.863281 1.179688 C 18.964844 1.152344 19.066406 1.136719 19.171875 1.136719 C 19.710938 1.136719 20.183594 1.5 20.324219 2.023438 L 20.796875 3.789062 L 22.527344 4.25 C 23.160156 4.421875 23.539062 5.078125 23.371094 5.710938 L 22.898438 7.476562 L 24.164062 8.742188 C 24.386719 8.96875 24.511719 9.269531 24.511719 9.585938 C 24.511719 9.90625 24.386719 10.207031 24.164062 10.429688 L 22.871094 11.722656 L 23.332031 13.453125 C 23.503906 14.089844 23.125 14.742188 22.488281 14.914062 L 20.722656 15.386719 L 20.261719 17.117188 C 20.121094 17.636719 19.648438 18 19.105469 18 C 19.003906 18 18.902344 17.984375 18.800781 17.960938 L 17.035156 17.484375 L 15.769531 18.753906 C 15.542969 18.976562 15.242188 19.101562 14.925781 19.101562 Z M 12.902344 16.65625 C 13 16.65625 13.097656 16.695312 13.171875 16.765625 L 14.617188 18.214844 C 14.699219 18.296875 14.808594 18.339844 14.925781 18.339844 C 15.039062 18.339844 15.148438 18.296875 15.230469 18.214844 L 16.652344 16.792969 C 16.746094 16.699219 16.886719 16.660156 17.019531 16.695312 L 18.996094 17.226562 C 19.03125 17.234375 19.070312 17.238281 19.105469 17.238281 C 19.304688 17.238281 19.476562 17.109375 19.527344 16.917969 L 20.046875 14.976562 C 20.082031 14.847656 20.183594 14.746094 20.316406 14.710938 L 22.292969 14.179688 C 22.523438 14.117188 22.660156 13.878906 22.597656 13.648438 L 22.078125 11.707031 C 22.042969 11.578125 22.082031 11.4375 22.175781 11.339844 L 23.625 9.894531 C 23.707031 9.8125 23.75 9.703125 23.75 9.585938 C 23.75 9.472656 23.707031 9.363281 23.625 9.28125 L 22.203125 7.859375 C 22.109375 7.765625 22.070312 7.625 22.105469 7.492188 L 22.636719 5.515625 C 22.699219 5.285156 22.5625 5.046875 22.332031 4.984375 L 20.390625 4.464844 C 20.257812 4.429688 20.15625 4.328125 20.121094 4.195312 L 19.589844 2.21875 C 19.539062 2.03125 19.367188 1.898438 19.171875 1.898438 C 19.132812 1.898438 19.097656 1.902344 19.058594 1.914062 L 17.117188 2.433594 C 16.988281 2.46875 16.847656 2.429688 16.753906 2.335938 L 15.304688 0.886719 C 15.222656 0.804688 15.113281 0.761719 15 0.761719 C 14.882812 0.761719 14.773438 0.804688 14.691406 0.886719 L 13.269531 2.308594 C 13.175781 2.402344 13.035156 2.441406 12.902344 2.40625 L 10.925781 1.875 C 10.890625 1.867188 10.851562 1.859375 10.816406 1.859375 C 10.617188 1.859375 10.445312 1.992188 10.394531 2.183594 L 9.875 4.125 C 9.839844 4.253906 9.738281 4.355469 9.605469 4.390625 L 7.628906 4.921875 C 7.519531 4.953125 7.425781 5.023438 7.367188 5.125 C 7.308594 5.222656 7.292969 5.339844 7.324219 5.453125 L 7.84375 7.394531 C 7.878906 7.523438 7.839844 7.664062 7.746094 7.761719 L 6.296875 9.207031 C 6.128906 9.375 6.128906 9.652344 6.296875 9.820312 L 7.71875 11.242188 C 7.8125 11.335938 7.851562 11.476562 7.816406 11.609375 L 7.285156 13.585938 C 7.226562 13.816406 7.363281 14.054688 7.59375 14.117188 L 9.535156 14.636719 C 9.664062 14.671875 9.765625 14.773438 9.800781 14.90625 L 10.332031 16.882812 C 10.382812 17.070312 10.554688 17.203125 10.75 17.203125 C 10.789062 17.203125 10.824219 17.199219 10.863281 17.1875 L 12.804688 16.667969 C 12.835938 16.660156 12.871094 16.65625 12.902344 16.65625 Z M 12.902344 16.65625 "/>
<path style=" stroke:none;fill-rule:evenodd;fill:rgb(35.294118%,27.058824%,80.784314%);fill-opacity:1;" d="M 14.960938 15.574219 C 11.640625 15.574219 8.9375 12.871094 8.9375 9.550781 C 8.9375 6.230469 11.640625 3.527344 14.960938 3.527344 C 18.28125 3.527344 20.984375 6.230469 20.984375 9.550781 C 20.984375 12.871094 18.28125 15.574219 14.960938 15.574219 Z M 14.960938 4.289062 C 12.058594 4.289062 9.699219 6.648438 9.699219 9.550781 C 9.699219 12.453125 12.058594 14.8125 14.960938 14.8125 C 17.863281 14.8125 20.222656 12.453125 20.222656 9.550781 C 20.222656 6.648438 17.863281 4.289062 14.960938 4.289062 Z M 14.960938 4.289062 "/>
</g>
</svg>
