<?xml version="1.0" encoding="utf-8"?>
<!-- Generator: Adobe Illustrator 23.0.3, SVG Export Plug-In . SVG Version: 6.00 Build 0)  -->
<svg version="1.1" id="Layer_1" xmlns="http://www.w3.org/2000/svg" xmlns:xlink="http://www.w3.org/1999/xlink" x="0px" y="0px"
	 viewBox="0 0 24 24" style="enable-background:new 0 0 24 24;" xml:space="preserve">
<style type="text/css">
	.st0{fill:url(#SVGID_1_);}
	.st1{fill:url(#SVGID_2_);}
	.st2{fill:url(#SVGID_3_);}
	.st3{fill:url(#SVGID_4_);}
	.st4{fill:url(#SVGID_5_);}
	.st5{fill:url(#SVGID_6_);}
	.st6{fill:url(#SVGID_7_);}
	.st7{fill:url(#SVGID_8_);}
	.st8{fill:url(#SVGID_9_);}
	.st9{fill:url(#SVGID_10_);}
	.st10{fill:url(#SVGID_11_);}
	.st11{fill:url(#SVGID_12_);}
	.st12{fill:url(#SVGID_13_);}
	.st13{fill:url(#SVGID_14_);}
	.st14{fill:url(#SVGID_15_);}
	.st15{fill:url(#SVGID_16_);}
	.st16{fill:url(#SVGID_17_);}
	.st17{fill:url(#SVGID_18_);}
	.st18{fill:url(#SVGID_19_);}
	.st19{fill:url(#SVGID_20_);}
	.st20{fill:url(#SVGID_21_);}
	.st21{fill:url(#SVGID_22_);}
	.st22{fill:url(#SVGID_23_);}
	.st23{fill:url(#SVGID_24_);}
	.st24{fill:url(#SVGID_25_);}
	.st25{fill:url(#SVGID_26_);}
	.st26{fill:url(#SVGID_27_);}
	.st27{fill:url(#SVGID_28_);}
	.st28{fill:url(#SVGID_29_);}
	.st29{fill:url(#SVGID_30_);}
	.st30{fill:url(#SVGID_31_);}
	.st31{fill:url(#SVGID_32_);}
</style>
<g>
	<g>
		<g>
			<linearGradient id="SVGID_1_" gradientUnits="userSpaceOnUse" x1="7.2315" y1="7.1544" x2="16.4623" y2="7.1544">
				<stop  offset="0" style="stop-color:#1245C6"/>
				<stop  offset="1" style="stop-color:#9909B7"/>
			</linearGradient>
			<path class="st0" d="M11.8,11.8c1.3,0,2.4-0.5,3.3-1.4c0.9-0.9,1.4-2,1.4-3.3c0-1.3-0.5-2.4-1.4-3.3c-0.9-0.9-2-1.4-3.3-1.4
				S9.5,3,8.6,3.9c-0.9,0.9-1.4,2-1.4,3.3c0,1.3,0.5,2.4,1.4,3.3C9.5,11.3,10.6,11.8,11.8,11.8z"/>
			<linearGradient id="SVGID_2_" gradientUnits="userSpaceOnUse" x1="3.3855" y1="16.0002" x2="20.3085" y2="16.0002">
				<stop  offset="0" style="stop-color:#1245C6"/>
				<stop  offset="1" style="stop-color:#9909B7"/>
			</linearGradient>
			<path class="st1" d="M20.3,16.6c0-0.4-0.1-0.8-0.2-1.3c-0.1-0.5-0.2-0.9-0.3-1.3c-0.1-0.4-0.3-0.8-0.5-1.2
				c-0.2-0.4-0.5-0.7-0.7-1c-0.3-0.3-0.6-0.5-1-0.6c-0.4-0.2-0.9-0.2-1.3-0.2c-0.1,0-0.2,0.1-0.5,0.3c-0.3,0.2-0.6,0.4-0.9,0.6
				c-0.3,0.2-0.8,0.4-1.3,0.6c-0.5,0.2-1.1,0.3-1.6,0.3c-0.5,0-1.1-0.1-1.6-0.3c-0.5-0.2-1-0.4-1.3-0.6c-0.3-0.2-0.6-0.4-0.9-0.6
				C7.8,11.1,7.6,11,7.5,11c-0.5,0-0.9,0.1-1.3,0.2c-0.4,0.2-0.7,0.4-1,0.6c-0.3,0.3-0.5,0.6-0.7,1C4.2,13.2,4,13.6,3.9,14
				c-0.1,0.4-0.2,0.8-0.3,1.3c-0.1,0.5-0.1,0.9-0.2,1.3c0,0.4,0,0.8,0,1.2c0,1,0.3,1.7,0.9,2.3C4.8,20.7,5.6,21,6.6,21h10.5
				c1,0,1.7-0.3,2.3-0.8c0.6-0.6,0.9-1.3,0.9-2.3C20.3,17.5,20.3,17,20.3,16.6z"/>
		</g>
	</g>
</g>
</svg>
